<svg version="1.1" xmlns="http://www.w3.org/2000/svg" style="display: block;" viewBox="0 0 2048 2048" width="2048" height="2048" preserveAspectRatio="none">
<path transform="translate(0,0)" fill="rgb(235,131,30)" d="M 1424.2 777.175 C 1440.26 776.327 1456.43 776.84 1472.51 776.769 C 1483.02 776.722 1494.14 775.825 1504.57 777.035 C 1509.15 777.566 1514.41 778.657 1518.24 781.366 C 1530.48 790.006 1535.65 843.035 1538.17 859.244 C 1567.45 868.246 1583.03 873.998 1610.47 889.142 C 1626.17 878.698 1653.72 854.883 1670.6 849.87 C 1676.36 848.158 1680.6 849.267 1685.75 852.104 C 1700.46 860.217 1747.35 906.285 1751.12 921.997 C 1751.79 924.787 1752.11 927.921 1751.38 930.732 C 1747.38 946.175 1721.44 976.746 1711.67 992.458 C 1725.56 1018.44 1730.96 1031.7 1739.31 1059.88 C 1761.96 1066.32 1800.88 1066.29 1816.67 1080.56 C 1820.46 1089.33 1822.16 1102.23 1821.19 1113.02 C 1819.26 1134.55 1826.1 1164.41 1815.51 1184 C 1813.83 1187.1 1807.56 1191.39 1804.43 1192.07 C 1783.48 1196.59 1760.93 1199.81 1739.88 1203.45 C 1733.02 1230.61 1724.33 1248.1 1711.72 1272.81 C 1722.51 1289.97 1745.51 1316.32 1751.84 1333.75 C 1758.26 1351.45 1693 1410.71 1678.55 1415.21 C 1666.95 1418.82 1621.02 1382.57 1609.04 1374.65 C 1585.54 1387.05 1564.02 1397.11 1538.12 1403.93 C 1536.38 1418.81 1533.91 1433.93 1531.34 1448.7 C 1528.16 1466.96 1528.64 1481.29 1508.33 1486.86 C 1481.26 1487.7 1452.38 1486.92 1425.19 1486.92 C 1417.26 1486.92 1408.51 1479.27 1406.58 1471.42 C 1401.19 1449.54 1398.56 1426.71 1394.24 1404.43 C 1364.44 1394.98 1351.36 1388.89 1324.01 1374.7 C 1307.26 1385.22 1280.83 1408.37 1263.66 1414.24 C 1257.57 1416.32 1252.55 1415.3 1246.9 1412.37 C 1232.66 1404.98 1185.09 1356.48 1181.19 1341.58 C 1180.44 1338.7 1180.16 1335.8 1180.97 1332.9 C 1185.23 1317.67 1211.25 1289.99 1220.2 1273.68 C 1220.41 1273.31 1220.6 1272.94 1220.8 1272.56 C 1207.97 1247.47 1201.79 1229.16 1192.07 1203.25 C 1173.6 1199.12 1134.62 1196.94 1120.5 1187.86 C 1115.9 1184.91 1113.49 1177.71 1112.36 1172.67 C 1109.54 1160.11 1109.66 1107.65 1111.84 1094.89 C 1112.7 1089.88 1114.21 1084.73 1117.06 1080.45 C 1124.46 1069.31 1177.27 1063.37 1193.14 1060.43 C 1198.08 1043.68 1213.14 1006.1 1219.81 993.025 C 1223.46 985.867 1173.1 936.655 1181.44 920.922 C 1192.64 899.811 1207.98 888.245 1224.04 871.268 C 1262.63 825.129 1281.34 864.602 1322.69 888.65 L 1323.58 889.153 C 1349.36 874.121 1366.27 868.314 1393.9 859.49 C 1397.4 845.18 1399.09 830.237 1401.73 815.744 C 1404.86 798.581 1404.49 782.545 1424.2 777.175 z M 1483.47 1283.57 C 1567.15 1274.18 1627.33 1198.68 1617.82 1115.02 C 1608.32 1031.35 1532.74 971.274 1449.09 980.888 C 1365.6 990.484 1305.66 1065.89 1315.14 1149.39 C 1324.63 1232.9 1399.95 1292.94 1483.47 1283.57 z"/>
<path transform="translate(0,0)" fill="rgb(5,62,81)" d="M 366.845 155.505 C 382.625 154.473 402.559 154.976 418.628 154.971 L 505.443 154.972 L 775.778 154.983 L 1532.34 154.954 C 1572.42 155.303 1607.05 167.25 1635.45 196.513 C 1654.27 216.194 1666.96 240.926 1671.96 267.692 C 1675.55 286.689 1674.53 317.517 1674.52 337.585 L 1674.5 436.72 L 1674.27 788.857 C 1644.45 789.793 1626.49 803.254 1603.2 820.892 C 1600.99 820.159 1593.58 817.9 1592.95 815.836 C 1585.07 789.853 1586.85 761.04 1586.84 734.323 L 1586.8 646.729 L 1586.77 386.798 L 1586.95 325.655 C 1586.98 315.028 1587.18 304.215 1586.71 293.822 C 1585.52 267.005 1568.56 245.06 1540.54 243.912 C 1516.08 242.91 1491.2 243.361 1466.63 243.422 L 1324.29 243.488 L 850.25 243.508 L 518.943 243.491 L 421.638 243.358 C 405.735 243.339 386.387 242.4 370.92 244.06 C 345.905 246.745 328.87 271.604 329.03 295.563 C 329.158 314.76 329.14 333.473 329.129 352.382 L 329.227 481.934 L 329.209 855.965 L 329.194 1094.24 L 329.143 1165.13 C 329.124 1189.17 325.102 1214.76 343.023 1233.38 C 349.4 1240.03 357.462 1244.82 366.349 1247.25 C 379.229 1250.69 438.129 1249 455.932 1249.27 C 468.799 1272.7 481.256 1287.29 499.768 1306.18 C 500.212 1316.08 499.894 1327.25 499.829 1337.25 C 468.885 1337.93 437.525 1336.98 406.535 1337.44 C 388.84 1337.71 369.188 1337.91 351.936 1334.39 C 333.109 1330.68 315.305 1322.95 299.734 1311.74 C 270.669 1290.54 249.395 1257.89 243.386 1222.18 C 240.776 1206.66 241.563 1182.96 241.611 1166.52 L 241.689 1089.44 L 241.539 812.305 L 241.53 445.424 L 241.562 336.505 C 241.552 288.639 237.609 250.903 269.184 210.121 C 295.024 176.747 325.509 161.337 366.845 155.505 z"/>
<path transform="translate(0,0)" fill="rgb(5,62,81)" d="M 653.895 934.381 C 664.98 933.678 674.603 933.541 685.735 934.456 C 737.97 938.775 786.29 963.868 819.87 1004.11 C 853.287 1044.62 869.386 1096.67 864.676 1148.98 C 859.137 1205.15 833.71 1248.01 790.711 1283.54 C 789.367 1315.81 791.232 1350.81 790.587 1383.24 C 790.387 1393.28 791.438 1415.24 790.111 1424.25 C 789.327 1429.28 787.535 1434.11 784.843 1438.43 C 779.555 1447.14 770.851 1453.23 760.856 1455.21 C 755.983 1456.15 750.959 1455.95 746.178 1454.62 C 732.5 1450.72 694.041 1423.89 680.566 1415.05 L 670.091 1408.34 C 650.375 1419.13 605.676 1455.96 585.23 1455.75 C 542.398 1455.31 549.447 1407.23 549.446 1377.81 L 549.419 1283.88 C 508.059 1250.84 481.422 1206.02 475.103 1153.18 C 468.83 1101.18 483.715 1048.83 516.412 1007.91 C 551.474 963.854 598.663 940.802 653.895 934.381 z M 678.506 1237.25 C 737.858 1232.46 782.044 1180.39 777.107 1121.05 C 772.169 1061.71 719.985 1017.66 660.658 1022.75 C 601.545 1027.82 557.687 1079.77 562.606 1138.9 C 567.526 1198.02 619.368 1242.01 678.506 1237.25 z"/>
<path transform="translate(0,0)" fill="rgb(5,62,81)" d="M 513.162 370.479 C 575.402 369.551 640.067 370.413 702.473 370.414 L 1064.88 370.381 L 1284.36 370.383 C 1322.5 370.343 1360.66 370.083 1398.8 370.53 C 1419.59 370.774 1435.99 383.513 1441.28 403.743 C 1444.23 415.412 1442.4 427.78 1436.18 438.087 C 1428.5 450.841 1418.08 455.668 1404.44 459.025 C 1350.78 460.668 1289.12 459.224 1234.73 459.221 L 906.898 459.221 L 650.347 459.259 L 565.331 459.282 C 546.813 459.284 506.648 462.342 493.268 451.771 C 459.629 425.196 470.7 378.283 513.162 370.479 z"/>
<path transform="translate(0,0)" fill="rgb(5,62,81)" d="M 511.039 564.398 C 521.012 563.479 543.569 564.014 554.205 564.024 L 635.772 564.133 L 893.999 564.15 L 1230.63 564.141 L 1340.49 564.006 C 1359.84 563.984 1379.69 563.736 1399.01 564.22 C 1409.2 564.475 1417.75 566.688 1425.84 573.251 C 1435.21 580.857 1441.17 591.876 1442.4 603.879 C 1444.98 630.041 1425.98 650.744 1400.07 652.565 L 799.917 652.605 L 607.605 652.568 L 547.958 652.622 C 529.776 652.665 507.337 655.538 492.142 644.64 C 482.466 637.643 475.986 627.071 474.144 615.274 C 470.23 591.017 486.908 568.498 511.039 564.398 z"/>
<path transform="translate(0,0)" fill="rgb(5,62,81)" d="M 508.344 758.286 C 518.299 756.864 552.035 757.589 563.158 757.591 L 673.978 757.616 L 907.892 757.571 C 948.061 757.566 988.297 757.513 1028.46 757.643 C 1036.75 758.162 1045.98 757.542 1053.59 761.062 C 1077.06 771.923 1087.19 799.989 1074.91 823.069 C 1067.9 836.232 1058.85 840.968 1045.19 845.286 C 1034.75 847.097 998.688 846.483 986.869 846.5 L 869.182 846.559 L 639.983 846.597 C 601.136 846.598 562.049 846.732 523.203 846.426 C 515.878 845.892 503.949 845.259 497.555 841.921 C 475.787 830.556 466.559 801.126 479.557 779.763 C 487.04 767.466 494.692 761.929 508.344 758.286 z"/>
<path transform="translate(0,0)" fill="rgb(5,62,81)" d="M 1169.25 1706.98 C 1230.11 1698.22 1286.58 1740.35 1295.53 1801.18 C 1304.49 1862.01 1262.55 1918.62 1201.75 1927.77 C 1140.67 1936.96 1083.74 1894.78 1074.75 1833.67 C 1065.75 1772.56 1108.11 1715.78 1169.25 1706.98 z M 1189.68 1873.35 C 1203.45 1871.09 1216 1866.01 1223.76 1853.83 C 1247.12 1817.17 1231.92 1758.34 1181 1760.37 C 1168.39 1761.97 1154.13 1767.79 1147.26 1778.77 C 1123.52 1816.69 1136.74 1875.41 1189.68 1873.35 z"/>
<path transform="translate(0,0)" fill="rgb(5,62,81)" d="M 923.771 1706.92 C 984.666 1698.6 1040.81 1741.12 1049.31 1801.99 C 1057.81 1862.87 1015.45 1919.14 954.607 1927.81 C 893.509 1936.52 836.955 1893.95 828.422 1832.83 C 819.89 1771.71 862.624 1715.28 923.771 1706.92 z M 949.761 1872.2 C 984.259 1862.21 994.699 1827.26 984.93 1795.27 C 976.544 1767.8 954.463 1758.14 927.241 1761.33 C 913.443 1766.14 902.052 1773.41 895.944 1787.21 C 877.755 1828.33 897.385 1880.63 949.761 1872.2 z"/>
<path transform="translate(0,0)" fill="rgb(5,62,81)" d="M 1443.97 1638.74 C 1463.89 1638.26 1485.91 1638.63 1505.98 1638.59 C 1506.37 1691.63 1506.24 1744.68 1505.59 1797.72 C 1524.33 1771.5 1553.28 1737.41 1573.93 1711.5 L 1649.3 1711.52 C 1623.69 1744.61 1590.39 1782.22 1563.21 1814.9 L 1616.95 1881.37 C 1628.56 1895.28 1640.03 1909.32 1651.36 1923.47 C 1626.04 1923.72 1600.73 1923.73 1575.41 1923.49 C 1553.83 1895.79 1525.36 1859.23 1505.72 1830.69 L 1505.95 1923.6 C 1485.28 1923.71 1464.61 1923.71 1443.94 1923.59 C 1442.56 1830.05 1443.95 1732.57 1443.97 1638.74 z"/>
<path transform="translate(0,0)" fill="rgb(5,62,81)" d="M 217.422 1708.5 C 272.179 1704.37 315.398 1720.57 323.45 1779.79 C 304.529 1779.9 285.607 1779.85 266.686 1779.65 C 265.333 1772.57 263.722 1767.74 258.696 1762.35 C 247.274 1750.1 221.961 1749.17 210.074 1761.09 C 207.624 1763.55 204.135 1770.1 205.07 1773.31 C 211.614 1795.78 254.664 1794.76 273.07 1802.94 C 285.963 1806.93 298.114 1811.54 308.536 1820.49 C 331.683 1840.36 330.249 1879.2 310.519 1901.03 C 294.409 1918.86 269.583 1925.67 246.113 1927.12 C 194.698 1928.03 148.655 1910.37 140.135 1854.55 L 201.464 1854.43 C 207.925 1877.36 224.681 1882.9 247.654 1879.86 C 256.621 1878.68 269.839 1869.56 266.632 1859.15 C 260.729 1840 226.084 1840.31 210.086 1834.35 C 182.727 1826.56 153.955 1818.78 148.09 1786.45 C 145.127 1769.93 148.875 1752.91 158.504 1739.16 C 173.734 1717.8 193.036 1712.56 217.422 1708.5 z"/>
<path transform="translate(0,0)" fill="rgb(5,62,81)" d="M 430.183 1708.41 C 485.865 1705.79 524.162 1720.61 534.399 1779.72 C 516.186 1780.23 495.347 1779.91 477.196 1779.59 C 475.477 1771.15 473.575 1766.03 465.592 1759.34 C 451.862 1747.55 413.635 1751.13 415.6 1774.38 C 418.512 1788.51 446.247 1793.26 456.784 1795.89 C 489.789 1804.03 531.61 1811.72 535.489 1853.31 C 540.138 1903.15 500.159 1923.65 457.063 1927.14 C 404.453 1927.9 360.081 1911.11 350.671 1854.57 L 412.328 1854.52 C 414.037 1862.39 415.374 1867.17 421.938 1872.68 C 435.056 1883.69 462.892 1884.8 474.273 1870.72 C 481.495 1861.79 475.422 1850.88 466.28 1846.38 C 458.738 1842.66 450.85 1841.15 442.696 1839.24 C 410.174 1831.54 363.866 1825.26 358.314 1784.29 C 355.93 1767.23 359.295 1751.33 369.982 1737.5 C 385.184 1717.83 406.497 1711.55 430.183 1708.41 z"/>
<path transform="translate(0,0)" fill="rgb(5,62,81)" d="M 884.184 1249.29 C 921.246 1248.21 962.497 1249.03 999.961 1249 L 1068.35 1248.97 C 1081.12 1248.97 1097.35 1248.51 1109.72 1249.54 C 1121.32 1250.51 1137.3 1253.47 1149.13 1255.41 C 1150.57 1260.1 1151.57 1261.34 1154.19 1265.62 C 1132.45 1292.22 1124.99 1303.04 1120.75 1337.15 L 1107.75 1337.4 L 839.962 1337.37 C 840.166 1327.11 840.122 1316.56 840.189 1306.28 C 860.337 1283.78 868.54 1275.06 884.184 1249.29 z"/>
<path transform="translate(0,0)" fill="rgb(5,62,81)" d="M 1799.65 1657.16 L 1861.6 1657.09 L 1861.56 1711.36 L 1907.02 1711.27 C 1906.91 1728.1 1906.92 1744.93 1907.04 1761.76 L 1861.63 1761.49 C 1861.9 1792.55 1860.61 1824.88 1862.21 1855.95 C 1862.59 1858.96 1864.51 1865.99 1867.24 1867.69 C 1877.47 1874.06 1895.87 1871.74 1907.58 1871.31 C 1907.3 1882.38 1907.5 1894.36 1907.49 1905.5 L 1907.55 1923.71 L 1884.51 1923.97 C 1850.96 1924.13 1807.87 1917.65 1802.13 1878.84 C 1797.11 1844.87 1799.3 1796.37 1799.58 1761.63 L 1772.84 1761.55 L 1772.76 1711.37 L 1799.55 1711.31 L 1799.65 1657.16 z"/>
<path transform="translate(0,0)" fill="rgb(5,62,81)" d="M 697.288 1657.18 L 759.172 1657.1 C 758.804 1668.02 760.301 1702.87 757.769 1711.45 C 773.101 1711.31 788.433 1711.27 803.765 1711.35 C 803.764 1727.96 803.974 1745.04 803.72 1761.61 C 789.098 1761.57 773.536 1761.8 758.995 1761.43 L 758.817 1821.11 C 758.713 1870.54 754.41 1872.86 804.582 1871.28 L 804.583 1923.55 C 775.026 1923.78 737.313 1927.32 714.115 1905.52 C 710.948 1902.55 704.076 1892.72 703.283 1888.36 C 693.591 1870.65 697.331 1786.5 697.379 1761.64 L 670.454 1761.64 C 670.338 1744.88 670.349 1728.13 670.488 1711.37 L 697.334 1711.29 L 697.288 1657.18 z"/>
<path transform="translate(0,0)" fill="rgb(2,49,66)" d="M 697.288 1657.18 L 759.172 1657.1 C 758.804 1668.02 760.301 1702.87 757.769 1711.45 C 755.243 1707.5 756.56 1670.28 756.519 1662.97 C 745.334 1661.2 715.159 1659.58 704.161 1661.43 C 694.505 1668.45 708.892 1698.44 700.842 1711.37 C 695.807 1715.16 680.061 1713.23 672.564 1713.36 C 672.364 1721.19 668.797 1760.61 680.17 1759.51 C 688.275 1758.72 693.97 1752.11 701.673 1762.49 C 702.46 1775.82 701.61 1783.94 701.178 1797.06 L 701.499 1789.7 C 702.971 1821.61 701.966 1855.88 703.283 1888.36 C 693.591 1870.65 697.331 1786.5 697.379 1761.64 L 670.454 1761.64 C 670.338 1744.88 670.349 1728.13 670.488 1711.37 L 697.334 1711.29 L 697.288 1657.18 z"/>
<path transform="translate(0,0)" fill="rgb(5,62,81)" d="M 1333.02 1638.67 L 1395.11 1638.58 C 1394.5 1668.18 1395.07 1699.9 1395.08 1729.7 L 1394.93 1923.51 C 1375.3 1924.21 1352.82 1923.64 1332.97 1923.61 L 1333.02 1638.67 z"/>
<path transform="translate(0,0)" fill="rgb(5,62,81)" d="M 574.78 1638.67 C 595.443 1638.75 616.106 1638.71 636.769 1638.55 L 636.657 1923.46 C 616.882 1924.11 594.666 1923.6 574.709 1923.59 L 574.78 1638.67 z"/>
<path transform="translate(0,0)" fill="rgb(5,62,81)" d="M 1677.29 1711.36 C 1697.73 1711.1 1718.8 1711.34 1739.29 1711.35 L 1739.28 1923.66 L 1677.09 1923.66 C 1678 1853.13 1676.39 1781.93 1677.29 1711.36 z"/>
<path transform="translate(0,0)" fill="rgb(5,62,81)" d="M 1700.27 1623.43 C 1709.77 1622.74 1716.13 1622.15 1725.22 1626.34 C 1733.88 1630.24 1740.53 1637.57 1743.55 1646.57 C 1750.66 1668.35 1736.75 1683.36 1716.67 1688.91 C 1707.59 1689.64 1700.54 1689.99 1691.87 1686.18 C 1683.32 1682.53 1676.71 1675.45 1673.64 1666.68 C 1670.85 1658.45 1671.54 1649.44 1675.53 1641.73 C 1681.07 1631.12 1689.55 1626.77 1700.27 1623.43 z"/>
</svg>